<?xml version="1.0" encoding="UTF-8"?>
<svg width="39px" height="50px" viewBox="0 0 39 50" version="1.1" xmlns="http://www.w3.org/2000/svg" xmlns:xlink="http://www.w3.org/1999/xlink">
    <!-- Generator: Sketch 49.3 (51167) - http://www.bohemiancoding.com/sketch -->
    <title>Untitled 5</title>
    <desc>Created with Sketch.</desc>
    <defs></defs>
    <g id="Page-1" stroke="none" stroke-width="1" fill="none" fill-rule="evenodd">
        <g id="document" fill="#c6c6c6" fill-rule="nonzero">
            <path d="M26.8967234,0 L0,0 L0,50 L39,50 L39,12.155 L26.8967234,0 Z M27.3829787,2.845 L36.1671064,11.6666667 L27.3829787,11.6666667 L27.3829787,2.845 Z M1.65957447,48.3333333 L1.65957447,1.66666667 L25.7234043,1.66666667 L25.7234043,13.3333333 L37.3404255,13.3333333 L37.3404255,48.3333333 L1.65957447,48.3333333 Z" id="Shape"></path>
        </g>
        <g id="photo" transform="translate(8.000000, 24.000000)" fill="#c6c6c6" fill-rule="nonzero">
            <path d="M22.6355916,0 L0.364408391,0 C0.163182077,0 0,0.161836428 0,0.361564853 L0,17.6384351 C0,17.8381636 0.163182077,18 0.364408391,18 L22.6355916,18 C22.8369637,18 23,17.8381636 23,17.6384351 L23,0.361564853 C23,0.161836428 22.8369637,0 22.6355916,0 Z M20.8135497,15.1173881 L15.8017682,9.96769217 C15.7463781,9.91092649 15.6557862,9.90723853 15.5960232,9.95944849 L12.1199316,12.9950747 L7.67691869,7.5671908 C7.64805754,7.53175745 7.60585905,7.51150981 7.55812155,7.5125222 C7.51213322,7.51346226 7.46920591,7.53537309 7.44172951,7.57196346 L2.18645035,14.5686049 L2.18645035,2.16938912 L20.8135497,2.16938912 L20.8135497,15.1173881 Z" id="Shape"></path>
            <path d="M15.9999592,8 C17.103818,8 18,7.1046796 18,6.00008153 C18,4.89580955 17.103818,4 15.9999592,4 C14.8952035,4 14,4.89580955 14,6.00008153 C14,7.10459808 14.8952851,8 15.9999592,8 Z" id="Shape"></path>
        </g>
    </g>
</svg>